# xmcd CD database file
#
# Track frame offsets:
#	150
#	16343
#	49074
#	72487
#	94577
#	138991
#	149357
#	168474
#	200248
#	218822
#	245832
#	263060
#	283511
#	308077
#	319866
#
# Disc length: 4439 seconds
#
# Revision: 0
# Processed by: cddbd v1.4PL0 Copyright (c) Steve Scherf et al.
# Submitted via: CDex 1.40Release
#
DISCID=e711550f
DTITLE=The Jim Mesi Band - Blues, Cars, and Electric Guitars
DYEAR=1900
DGENRE=Blues
TTITLE0=Pontiac Blues
TTITLE1=Dangerous Mood
TTITLE2=Goin' Back Home
TTITLE3=Come On If You're Comin'
TTITLE4=Blue Light Boogie
TTITLE5=Rampage In C
TTITLE6=Too Much Stuff
TTITLE7=Body And Fender Man
TTITLE8=Apache
TTITLE9=My Baby
TTITLE10=Misirlou (2001 Bridge Mix)
TTITLE11=Who's Foolin' Who?
TTITLE12=Me And Mr. Blue
TTITLE13=Surfin' On The Autobahn
TTITLE14=Norwegian Wood
EXTD=ID3G: 0
EXTT0=
EXTT1=
EXTT2=
EXTT3=
EXTT4=
EXTT5=
EXTT6=
EXTT7=
EXTT8=
EXTT9=
EXTT10=
EXTT11=
EXTT12=
EXTT13=
EXTT14=
PLAYORDER=
